<svg xmlns="http://www.w3.org/2000/svg" viewBox="0 0 30 30"><defs><style>.cls-1{fill:#5078bb;}.cls-2{fill:#fff;}</style></defs><title>facebook_icon</title><g id="レイヤー_2" data-name="レイヤー 2"><g id="レイヤー_2-2" data-name="レイヤー 2"><path class="cls-1" d="M15,30A15,15,0,1,0,0,15,15,15,0,0,0,15,30"/><path class="cls-2" d="M11.38,12.46h1.55V11a4,4,0,0,1,.5-2.32A2.76,2.76,0,0,1,15.84,7.5a9.75,9.75,0,0,1,2.78.28l-.39,2.3A5.24,5.24,0,0,0,17,9.89c-.6,0-1.14.22-1.14.82v1.75h2.47l-.17,2.24h-2.3v7.8H12.93V14.7H11.38Z"/></g></g></svg>