<svg xmlns="http://www.w3.org/2000/svg" viewBox="0 0 150 15"><defs><style>.cls-1{fill:#fff;}</style></defs><title>logo</title><g id="レイヤー_2" data-name="レイヤー 2"><g id="レイヤー_2-2" data-name="レイヤー 2"><path class="cls-1" d="M16.78,14.61l5.72-7.93h-.16l-9.11,7.93H9l2-7.93h-.13L5.63,14.61H0L9.58.93h7.69l-1.85,7.5h.13L23.81.93h8.42L22.65,14.61Z"/><path class="cls-1" d="M42.16,13.75a15.52,15.52,0,0,1-1.92.63,20.36,20.36,0,0,1-2.25.44,18.3,18.3,0,0,1-2.6.17,12.51,12.51,0,0,1-3.52-.43,5,5,0,0,1-2.2-1.22,3,3,0,0,1-.85-1.91,5.12,5.12,0,0,1,.55-2.49,11.45,11.45,0,0,1,2.34-3.29A16.41,16.41,0,0,1,35.26,3a19.49,19.49,0,0,1,4.35-1.8A17.51,17.51,0,0,1,44.37.54a12.13,12.13,0,0,1,4,.55A4.4,4.4,0,0,1,50.5,2.45L44.82,5.66a1.5,1.5,0,0,0-.89-.74,4.75,4.75,0,0,0-1.62-.24,6.38,6.38,0,0,0-1.94.3,7.49,7.49,0,0,0-1.76.81A7.14,7.14,0,0,0,37.17,7a5.59,5.59,0,0,0-1,1.45,1.57,1.57,0,0,0,.06,1.7,2.7,2.7,0,0,0,2.22.7,6.73,6.73,0,0,0,2-.31,10.25,10.25,0,0,0,1.83-.75L43.75,13Q43,13.4,42.16,13.75Z"/><path class="cls-1" d="M68.88,14.61H63.07l1.75-5.3h-.05l-6,5.3H53L55.78,4.45h6.1L59.67,9.84h.1l5.8-5.39h5.65l-2,5.39h.08L75,4.45h6.12Z"/><path class="cls-1" d="M83,14.92a12.12,12.12,0,0,1-2.79-.29,5.11,5.11,0,0,1-2-.87,2.41,2.41,0,0,1-.93-1.43,3.13,3.13,0,0,1,.33-2A8.81,8.81,0,0,1,79.33,8,11.62,11.62,0,0,1,81.9,6a13.83,13.83,0,0,1,3.28-1.34A14.51,14.51,0,0,1,89,4.14a12.6,12.6,0,0,1,2.84.29,5.13,5.13,0,0,1,2,.87,2.47,2.47,0,0,1,.94,1.43,3.05,3.05,0,0,1-.32,2,8.8,8.8,0,0,1-1.69,2.42,11.47,11.47,0,0,1-2.59,2,13.94,13.94,0,0,1-3.32,1.34A14.89,14.89,0,0,1,83,14.92Zm5.59-5.78a1,1,0,0,0,0-1,1.64,1.64,0,0,0-1.34-.43A3.77,3.77,0,0,0,86,7.86,5,5,0,0,0,85,8.34a3.93,3.93,0,0,0-.86.71,3.38,3.38,0,0,0-.58.85,1,1,0,0,0,0,1.05,1.63,1.63,0,0,0,1.32.42,4.13,4.13,0,0,0,1.2-.17,4.2,4.2,0,0,0,1.06-.48A4.33,4.33,0,0,0,88,10,3.32,3.32,0,0,0,88.58,9.14Z"/><path class="cls-1" d="M98.88,5.49q.39-.58.65-1h5.6a2.24,2.24,0,0,1-.14.25l-.22.34-.24.36-.2.29h.08a9.41,9.41,0,0,1,1.94-1,6,6,0,0,1,2.22-.42,4.21,4.21,0,0,1,1.05.1L106.83,8a3.11,3.11,0,0,0-.56-.08l-.62,0a5,5,0,0,0-2.36.53,4.29,4.29,0,0,0-1.51,1.25l-3.45,4.93H92.49l5.73-8.18Q98.5,6.07,98.88,5.49Z"/><path class="cls-1" d="M112.86,10.19l-3.06,4.43H104L114.18,0H120l-5.88,8.33h.08l5.65-3.89H127l-7.86,4.83.92,5.34h-6.83l-.3-4.43Z"/><path class="cls-1" d="M124.55,10.94a2.68,2.68,0,0,0,1.22.75,4.89,4.89,0,0,0,1.52.25,3,3,0,0,0,.87-.11.68.68,0,0,0,.46-.34c.07-.15,0-.28-.23-.39a4.91,4.91,0,0,0-.9-.29,9,9,0,0,1-1.42-.44,2.91,2.91,0,0,1-.95-.6,1.37,1.37,0,0,1-.41-.81,2,2,0,0,1,.23-1.08,4.61,4.61,0,0,1,1.33-1.66,8.09,8.09,0,0,1,2-1.18,12.16,12.16,0,0,1,2.41-.7,13.55,13.55,0,0,1,2.44-.23,12.11,12.11,0,0,1,3,.34,4.46,4.46,0,0,1,2,1L133.93,8a2.15,2.15,0,0,0-1-.59,4.17,4.17,0,0,0-1.43-.24,3.33,3.33,0,0,0-.9.11.7.7,0,0,0-.48.34c-.06.13,0,.23.14.3a4.51,4.51,0,0,0,.84.24,9.31,9.31,0,0,1,1.56.43,3.43,3.43,0,0,1,1.08.63,1.47,1.47,0,0,1,.48.87,2.08,2.08,0,0,1-.23,1.18A4.57,4.57,0,0,1,132.61,13a8.5,8.5,0,0,1-2.1,1.16,11.66,11.66,0,0,1-2.41.64,15.59,15.59,0,0,1-2.37.19,14.73,14.73,0,0,1-3-.31,5.18,5.18,0,0,1-2.39-1.08Z"/><path class="cls-1" d="M143.63,6.36h-4.2L145.18.93H150Z"/></g></g></svg>